<?xml version="1.0" encoding="UTF-8" standalone="no"?>
<!-- Uploaded to: SVG Repo, www.svgrepo.com, Generator: SVG Repo Mixer Tools -->

<svg
   fill="#000000"
   height="800px"
   width="800px"
   version="1.1"
   id="Layer_1"
   viewBox="0 0 330 330"
   xml:space="preserve"
   sodipodi:docname="right_arrow.svg"
   inkscape:version="1.3.2 (091e20e, 2023-11-25, custom)"
   xmlns:inkscape="http://www.inkscape.org/namespaces/inkscape"
   xmlns:sodipodi="http://sodipodi.sourceforge.net/DTD/sodipodi-0.dtd"
   xmlns="http://www.w3.org/2000/svg"
   xmlns:svg="http://www.w3.org/2000/svg"><defs
   id="defs1" /><sodipodi:namedview
   id="namedview1"
   pagecolor="#ffffff"
   bordercolor="#000000"
   borderopacity="0.25"
   inkscape:showpageshadow="2"
   inkscape:pageopacity="0.0"
   inkscape:pagecheckerboard="0"
   inkscape:deskcolor="#d1d1d1"
   inkscape:zoom="0.97138794"
   inkscape:cx="323.24881"
   inkscape:cy="327.88136"
   inkscape:window-width="2560"
   inkscape:window-height="1334"
   inkscape:window-x="-11"
   inkscape:window-y="-11"
   inkscape:window-maximized="1"
   inkscape:current-layer="Layer_1"
   inkscape:rotation="90" />
<path
   id="XMLID_24_"
   d="M315,0H15C6.716,0,0,6.716,0,15v300c0,8.284,6.716,15,15,15h300c8.284,0,15-6.716,15-15V15  C330,6.716,323.284,0,315,0z M255.606,135.606l-79.998,80c-2.813,2.813-6.628,4.394-10.606,4.394c-3.979,0-7.793-1.58-10.607-4.394  l-80.002-80c-5.858-5.857-5.858-15.355,0-21.213c5.857-5.858,15.355-5.858,21.213,0l69.396,69.393l69.392-69.393  c5.857-5.858,15.355-5.858,21.213,0C261.465,120.251,261.465,129.749,255.606,135.606z"
   style="fill:#0b5917;fill-opacity:1" />
<path
   style="fill:#ffffff;stroke-width:0.727934"
   d="m 393.81256,532.39723 c -2.202,-0.35451 -6.46042,-1.82825 -9.46315,-3.27496 -5.32593,-2.56602 -7.90612,-5.07295 -105.44922,-102.45503 C 213.53728,361.41223 177.92636,325.34825 176.0687,322.52748 c -9.47897,-14.39335 -7.11371,-33.59286 5.60405,-45.48971 5.4285,-5.07809 10.92864,-7.83869 18.6473,-9.35935 5.16643,-1.01784 6.23153,-1.01249 11.66817,0.0586 12.77377,2.51657 5.93885,-3.66219 101.76005,91.99088 l 86.26873,86.11737 83.70397,-83.74966 c 46.03717,-46.06231 85.83317,-85.36819 88.43554,-87.34639 8.56562,-6.51119 18.37863,-8.95189 28.05661,-6.97827 7.57948,1.54567 12.61384,4.12159 18.11783,9.27031 12.73352,11.91159 15.09773,31.34594 5.54034,45.54288 -1.7582,2.6117 -41.51686,42.86113 -102.81399,104.08312 -97.69749,97.5777 -100.07009,99.88355 -105.40671,102.44138 -3.00273,1.4392 -7.58872,2.94876 -10.19108,3.35456 -5.35076,0.83439 -6.08044,0.83026 -11.64695,-0.0659 z"
   id="path1"
   transform="scale(0.4125)" /><path
   style="fill:#ffffff;stroke-width:0.727934"
   d="m 393.81256,532.39723 c -2.202,-0.35451 -6.46042,-1.82825 -9.46315,-3.27496 -5.32593,-2.56602 -7.90612,-5.07295 -105.44922,-102.45503 C 213.53728,361.41223 177.92636,325.34825 176.0687,322.52748 c -9.47768,-14.39139 -7.11354,-33.59302 5.60035,-45.48624 12.07045,-11.29131 28.36071,-13.08125 43.04551,-4.72975 2.3286,1.32432 32.12743,30.57824 89.39627,87.76152 l 85.90336,85.77504 83.70537,-83.75106 c 46.03796,-46.06308 85.83458,-85.36959 88.43695,-87.34779 8.62909,-6.55944 18.32356,-8.96313 28.10488,-6.96843 7.53183,1.53596 12.57489,4.12048 18.06956,9.26047 12.73352,11.91159 15.09773,31.34594 5.54034,45.54288 -1.7582,2.6117 -41.51686,42.86113 -102.81399,104.08312 -97.69749,97.5777 -100.07009,99.88355 -105.40671,102.44138 -3.00273,1.4392 -7.58872,2.94876 -10.19108,3.35456 -5.35076,0.83439 -6.08044,0.83026 -11.64695,-0.0659 z"
   id="path2"
   transform="scale(0.4125)" /><path
   style="fill:#ffffff;stroke-width:0.727934"
   d="m 392.54789,532.10984 c -10.68238,-2.32083 -4.813,3.12691 -113.6477,-105.48356 -65.42983,-65.29502 -100.97193,-101.27514 -102.83149,-104.0988 -9.47768,-14.39139 -7.11354,-33.59302 5.60035,-45.48624 11.32768,-10.59649 26.35961,-12.87257 40.33885,-6.10796 5.32181,2.57525 7.83351,5.00589 91.73398,88.77348 l 86.26236,86.12573 85.89415,-85.76754 c 57.27556,-57.19114 87.05793,-86.42932 89.38705,-87.75374 8.3544,-4.75061 16.79107,-6.24961 25.24331,-4.48515 7.35289,1.53497 12.36622,4.13009 17.8022,9.21518 12.76769,11.94354 15.12338,31.30785 5.54034,45.54288 -1.7582,2.6117 -41.51686,42.86113 -102.81399,104.08312 -97.69749,97.5777 -100.07009,99.88355 -105.40671,102.44138 -5.02971,2.41073 -12.31032,4.16757 -16.74249,4.04002 -1.00091,-0.0288 -3.863,-0.49627 -6.36021,-1.0388 z"
   id="path3"
   transform="scale(0.4125)" /><path
   style="fill:#ffffff;stroke-width:0.727934"
   d="m 392.54789,532.10984 c -10.68238,-2.32083 -4.813,3.12691 -113.6477,-105.48356 -65.42983,-65.29502 -100.97193,-101.27514 -102.83149,-104.0988 -9.47768,-14.39139 -7.11354,-33.59302 5.60035,-45.48624 5.49496,-5.14027 10.53775,-7.72451 18.07107,-9.26078 7.51187,-1.53189 14.53513,-0.54951 22.23748,3.11045 5.39639,2.56423 7.15658,4.26714 91.76286,88.77656 l 86.26094,86.16219 86.25954,-86.16245 c 84.60856,-84.51334 86.36484,-86.21248 91.76147,-88.77657 14.16036,-6.72797 29.00032,-4.42768 40.43346,6.26745 3.53708,3.30877 5.41333,5.85916 7.68903,10.45172 2.77412,5.59841 3.03753,6.64149 3.35805,13.29761 0.42439,8.81332 -1.20746,15.10437 -5.61713,21.65494 -1.77961,2.64362 -41.09761,42.43398 -102.82852,104.06392 -109.20695,109.02829 -102.88276,103.17194 -113.94552,105.51619 -5.95914,1.26277 -8.62892,1.25679 -14.56389,-0.0326 z"
   id="path4"
   transform="scale(0.4125)" /><path
   style="fill:#ffffff;stroke-width:0.727934"
   d="m 392.54789,532.10984 c -10.68238,-2.32083 -4.813,3.12691 -113.6477,-105.48356 -65.42983,-65.29502 -100.97193,-101.27514 -102.83149,-104.0988 -9.0185,-13.69414 -7.40066,-31.89029 3.89755,-43.83647 11.35904,-12.01051 27.02511,-14.90736 42.05377,-7.77626 5.34304,2.53528 7.29977,4.4287 91.72044,88.75272 l 86.26094,86.16219 86.25954,-86.16245 c 84.60856,-84.51334 86.36484,-86.21248 91.76147,-88.77657 14.16036,-6.72797 29.00032,-4.42768 40.43346,6.26745 3.53708,3.30877 5.41333,5.85916 7.68903,10.45172 2.77412,5.59841 3.03753,6.64149 3.35805,13.29761 0.42439,8.81332 -1.20746,15.10437 -5.61713,21.65494 -1.77961,2.64362 -41.09761,42.43398 -102.82852,104.06392 -109.20695,109.02829 -102.88276,103.17194 -113.94552,105.51619 -5.95914,1.26277 -8.62892,1.25679 -14.56389,-0.0326 z"
   id="path5"
   transform="scale(0.4125)" /><path
   style="fill:#ffffff;stroke-width:0.727934"
   d="M 392.09032,532.05717 C 381.659,529.5323 387.05725,534.56049 278.90019,426.62628 213.47036,361.33126 177.92826,325.35114 176.0687,322.52748 c -3.8807,-5.89265 -5.73394,-12.23876 -5.72415,-19.60143 0.0126,-9.46252 3.16647,-17.40959 9.6153,-24.22827 11.421,-12.07603 26.89309,-14.93467 42.06017,-7.77108 5.35121,2.52744 7.17059,4.28772 91.72044,88.74077 l 86.26094,86.16219 86.25954,-86.16245 c 84.96751,-84.87189 86.34298,-86.20211 91.83116,-88.81009 14.23029,-6.76224 28.84666,-4.47272 40.39157,6.32698 3.50802,3.28159 5.39074,5.84366 7.66123,10.42571 2.77412,5.59841 3.03753,6.64149 3.35805,13.29761 0.42439,8.81332 -1.20746,15.10437 -5.61713,21.65494 -1.77961,2.64362 -41.09761,42.43398 -102.82852,104.06392 -109.20695,109.02829 -102.88276,103.17194 -113.94552,105.51619 -6.03161,1.27813 -9.46923,1.25861 -15.02146,-0.0853 z"
   id="path6"
   transform="scale(0.4125)" /><path
   style="fill:#ffffff;stroke-width:0.727934"
   d="M 392.09032,532.05717 C 381.659,529.5323 387.05725,534.56049 278.90019,426.62628 213.12128,360.9829 177.93326,325.35858 176.0543,322.5052 c -4.32015,-6.56056 -5.94564,-12.76384 -5.59994,-21.37079 0.25389,-6.3211 0.56631,-7.66069 2.96429,-12.71015 7.40086,-15.58411 23.66213,-24.04198 39.69503,-20.64631 11.39448,2.41328 6.10086,-2.42334 100.62678,91.93955 l 86.26094,86.11216 86.25954,-86.11243 c 94.52557,-94.36437 89.22984,-89.52578 100.62538,-91.93928 16.0329,-3.39567 32.29417,5.0622 39.69503,20.64631 2.39798,5.04946 2.71041,6.38905 2.9643,12.71015 0.34747,8.65121 -1.32735,14.99204 -5.65983,21.42795 -1.77961,2.64362 -41.09761,42.43398 -102.82852,104.06392 -108.55088,108.3733 -102.68225,102.91925 -113.48174,105.46487 -5.67465,1.33761 -9.85654,1.32844 -15.48524,-0.034 z"
   id="path7"
   transform="scale(0.4125)" /><path
   style="fill:#ffffff;stroke-width:0.727934"
   d="m 392.35669,532.21444 c -10.25301,-2.24223 -4.97634,2.66849 -113.4565,-105.58816 C 213.12128,360.9829 177.93326,325.35858 176.0543,322.5052 c -4.33715,-6.58638 -5.94595,-12.75634 -5.59626,-21.4625 0.26769,-6.66462 0.4982,-7.58276 3.3474,-13.33267 9.18563,-18.53739 30.1105,-25.76976 48.44735,-16.74511 4.96742,2.44476 9.50637,6.84632 91.48767,88.71856 l 86.26094,86.14618 86.25954,-86.11243 c 94.52557,-94.36437 89.22984,-89.52578 100.62538,-91.93928 14.43147,-3.05649 29.81719,3.82574 37.93565,16.96912 6.86909,11.12073 6.47498,26.80668 -0.95068,37.83705 -1.76035,2.61488 -41.44208,42.77063 -102.81399,104.04216 -108.55088,108.3733 -102.68225,102.91925 -113.48174,105.46487 -5.48666,1.2933 -9.71227,1.32753 -15.21887,0.12329 z"
   id="path8"
   transform="scale(0.4125)" /><path
   style="fill:#ffffff;stroke-width:0.727934"
   d="m 393.08462,532.41403 c -10.98208,-2.14049 -7.84945,0.76573 -116.94688,-108.49412 -78.67652,-78.79365 -100.22352,-100.76059 -101.64766,-103.62874 -2.92946,-5.89975 -4.15341,-11.09373 -4.15341,-17.62551 0,-10.45707 3.62855,-18.51011 11.71269,-25.99459 11.17156,-10.3429 26.39264,-12.50326 40.20343,-5.70615 4.96742,2.44476 9.50637,6.84632 91.48767,88.71856 l 86.26094,86.14618 86.25954,-86.11243 c 94.52557,-94.36437 89.22984,-89.52578 100.62538,-91.93928 8.78773,-1.86118 18.38947,-0.0723 26.07169,4.85737 3.86448,2.47983 9.79353,8.5213 12.12121,12.35103 6.59222,10.84619 6.08059,26.77111 -1.20793,37.59777 -1.76035,2.61488 -41.44208,42.77063 -102.81399,104.04216 -108.55088,108.3733 -102.68225,102.91925 -113.48174,105.46487 -5.11482,1.20565 -9.46455,1.30257 -14.49094,0.32288 z"
   id="path9"
   transform="scale(0.4125)" /><path
   style="fill:#ffffff;stroke-width:0.727934"
   d="M 391.74008,532.09355 C 381.93107,529.96471 384.68341,532.5406 276.50169,424.24279 197.49914,345.15546 175.9149,323.16074 174.49006,320.29117 c -2.92945,-5.89979 -4.15339,-11.09375 -4.15339,-17.62551 0,-10.44831 3.62932,-18.51082 11.69334,-25.97668 11.2359,-10.40246 26.34739,-12.55296 40.22278,-5.72406 4.96742,2.44476 9.50637,6.84632 91.48767,88.71856 l 86.26094,86.14618 86.25954,-86.11243 c 94.52557,-94.36437 89.22984,-89.52578 100.62538,-91.93928 8.78773,-1.86118 18.38947,-0.0723 26.07169,4.85737 3.86448,2.47983 9.79353,8.5213 12.12121,12.35103 6.59222,10.84619 6.08059,26.77111 -1.20793,37.59777 -1.76035,2.61488 -41.44208,42.77063 -102.81399,104.04216 -108.55088,108.3733 -102.68225,102.91925 -113.48174,105.46487 -5.64145,1.32979 -9.71644,1.3304 -15.83548,0.002 z"
   id="path10"
   transform="scale(0.4125)" /><path
   style="fill:#ffffff;stroke-width:0.727934"
   d="M 391.29918,532.09138 C 381.68675,529.65908 383.60796,531.464 276.50169,424.24279 197.49914,345.15546 175.9149,323.16074 174.49006,320.29117 c -2.92945,-5.89979 -4.15339,-11.09375 -4.15339,-17.62551 0,-10.43624 3.63036,-18.51179 11.66676,-25.95208 11.30665,-10.46796 25.99313,-12.60735 40.01659,-5.82924 5.30901,2.56606 7.83745,5.01378 91.72044,88.79206 l 86.26094,86.15326 86.25954,-86.14644 c 81.98429,-81.87681 86.51858,-86.27393 91.48627,-88.71857 13.87605,-6.82851 28.98704,-4.67798 40.22278,5.72433 8.16298,7.55748 11.69334,15.44698 11.69334,26.13177 0,6.77443 -1.54967,12.78282 -4.7339,18.35428 -2.9187,5.10685 -199.28662,201.66899 -205.63917,205.84256 -2.60236,1.70973 -6.36127,3.66027 -8.35313,4.33454 -5.12794,1.73588 -14.33029,2.08229 -19.63795,0.73925 z"
   id="path11"
   transform="scale(0.4125)" /><path
   style="fill:#ffffff;stroke-width:0.727934"
   d="m 390.83613,531.92498 c -2.64101,-0.71631 -6.89338,-2.67221 -9.46315,-4.35263 -3.31631,-2.16861 -33.66549,-32.07657 -104.87129,-103.34664 -79.01626,-79.08759 -100.58654,-101.06447 -102.01163,-103.93454 -2.92945,-5.89979 -4.15339,-11.09375 -4.15339,-17.62551 0,-10.43624 3.63036,-18.51179 11.66676,-25.95208 11.30665,-10.46796 25.99313,-12.60735 40.01659,-5.82924 5.30901,2.56606 7.83745,5.01378 91.72044,88.79206 l 86.26094,86.15326 86.25954,-86.14644 c 81.98429,-81.87681 86.51858,-86.27393 91.48627,-88.71857 13.87605,-6.82851 28.98704,-4.67798 40.22278,5.72433 8.13608,7.53258 11.70004,15.46731 11.6847,26.01464 -0.005,3.26733 -0.4468,7.57845 -0.98233,9.58027 -2.52685,9.44531 1.38723,5.27638 -104.8121,111.63709 -71.33661,71.445 -101.18919,100.87726 -104.57,103.09766 -2.60236,1.70915 -6.36127,3.65922 -8.35313,4.33349 -5.5376,1.87455 -14.37326,2.12635 -20.101,0.57285 z"
   id="path12"
   transform="scale(0.4125)" /><path
   style="fill:#ffffff;stroke-width:0.727934"
   d="m 391.34084,532.05228 c -9.30791,-2.25226 -6.11439,0.74656 -113.79088,-106.85346 l -101.33993,-101.26797 -2.69469,-5.82348 c -2.44238,-5.27823 -2.72464,-6.53911 -3.01465,-13.46679 -0.27163,-6.48865 -0.0797,-8.3581 1.27051,-12.37488 2.11043,-6.27843 5.0634,-10.76668 10.23223,-15.55212 11.30669,-10.46799 25.99325,-12.60737 40.01659,-5.82919 5.30859,2.56591 7.83433,5.01069 91.37165,88.4432 47.25169,47.1924 86.22544,85.80435 86.60833,85.80435 0.38289,0 39.35664,-38.60877 86.60833,-85.79727 81.64308,-81.53391 86.17186,-85.92509 91.13888,-88.3697 13.82221,-6.80286 28.96023,-4.70312 40.03875,5.55363 8.32739,7.7097 11.88419,15.55676 11.86873,26.18502 -0.005,3.26733 -0.4468,7.57845 -0.98233,9.58027 -2.53498,9.47576 1.59766,5.08723 -106.62864,113.23068 -94.15151,94.07943 -102.01109,101.75093 -106.39313,103.84708 -7.92298,3.78998 -16.04937,4.68941 -24.30975,2.69063 z"
   id="path13"
   transform="scale(0.4125)" /><path
   style="fill:#ffffff;stroke-width:0.727934"
   d="m 391.34084,532.09885 c -9.37656,-2.37062 -6.2144,0.60005 -113.79088,-106.90003 l -101.33993,-101.26797 -2.69469,-5.82348 c -2.44238,-5.27823 -2.72464,-6.53911 -3.01465,-13.46679 -0.27163,-6.48865 -0.0797,-8.3581 1.27051,-12.37488 2.11043,-6.27843 5.0634,-10.76668 10.23223,-15.55212 11.30669,-10.46799 25.99325,-12.60737 40.01659,-5.82919 5.30859,2.56591 7.83433,5.01069 91.37165,88.4432 47.25169,47.1924 86.22544,85.80435 86.60833,85.80435 0.38289,0 39.35664,-38.61195 86.60833,-85.80435 83.59957,-83.49467 86.0591,-85.87523 91.37165,-88.43763 14.06292,-6.78296 29.15105,-4.59846 40.05145,5.79876 8.21193,7.83286 11.63855,15.50223 11.62326,26.0149 -0.005,3.26733 -0.4468,7.57845 -0.98233,9.58027 -2.52779,9.44886 1.42265,5.24362 -105.17605,111.95971 -65.66268,65.73499 -101.70792,101.30836 -104.57001,103.2011 -2.40219,1.58858 -6.00546,3.39703 -8.00728,4.01876 -5.27755,1.63914 -14.43278,1.93626 -19.57818,0.63539 z"
   id="path14"
   transform="scale(0.4125)" /><path
   style="fill:#ffffff;stroke-width:0.727934"
   d="m 392.35669,532.46159 c -1.80164,-0.37564 -5.40492,-1.7292 -8.00728,-3.0079 -4.33035,-2.12778 -13.35267,-10.93428 -106.39742,-103.85228 l -101.66586,-101.52735 -2.74384,-5.84703 c -2.51367,-5.35654 -2.76975,-6.49223 -3.0527,-13.53839 -0.26182,-6.51983 -0.0666,-8.41208 1.28161,-12.42294 5.6539,-16.82009 22.88074,-27.67261 39.51178,-24.89154 3.01696,0.5045 7.61605,2.01063 10.73704,3.51621 5.30347,2.55842 7.83129,4.99785 88.44404,85.3512 45.64149,45.49463 84.53692,84.1711 86.43428,85.94771 l 3.44977,3.23021 86.08618,-85.94249 c 83.68983,-83.55013 86.23816,-86.01595 91.54569,-88.5814 3.13206,-1.51392 7.70938,-3.01515 10.73704,-3.52144 13.60133,-2.27443 27.63483,4.39298 35.8766,17.04523 3.94554,6.05694 5.34611,11.9719 4.92171,20.78555 -0.29557,6.13796 -0.69918,7.96974 -2.7742,12.59049 -2.41401,5.37563 -3.02034,6.0005 -102.93777,106.08524 -66.01493,66.12547 -102.0084,101.66867 -104.87706,103.56506 -2.40219,1.58802 -6.00546,3.396 -8.00728,4.01773 -4.48827,1.394 -14.16742,1.91446 -18.56233,0.99813 z"
   id="path15"
   transform="scale(0.4125)" /><path
   style="fill:#ffffff;fill-opacity:1;stroke-width:1.02945"
   d="m 627.6541,315.89807 c -0.96006,2.46841 -3.83021,6.94835 -6.37811,9.95544 -2.54791,3.00709 -48.64175,49.44031 -102.43076,103.18493 -110.54604,110.45481 -102.79055,103.69114 -118.90203,103.69605 -6.78564,0.002 -9.82718,-0.49442 -13.54621,-2.21125 -6.74888,-3.11551 -28.43919,-24.09981 -126.09634,-121.99196 -67.15745,-67.31907 -84.11096,-84.84848 -86.46313,-89.40029 -2.63896,-5.10679 -2.92695,-6.67146 -2.93694,-15.95654 -0.0132,-12.28963 2.06708,-17.60503 9.99671,-25.54266 7.30055,-7.30793 14.75137,-10.42322 25.01532,-10.45926 7.30467,-0.0257 9.05879,0.36558 15.20474,3.39122 6.37429,3.13805 14.04287,10.4789 92.95191,88.97938 l 86.00444,85.55916 61.44467,-61.28308 c 104.34609,-104.07168 109.4643,-109.01025 117.18551,-113.07259 6.19609,-3.25994 7.64464,-3.60309 15.2094,-3.60309 7.36862,0 9.17538,0.40088 15.22116,3.37719 8.3821,4.1265 15.31215,11.47255 18.26294,19.35922 2.66905,7.13367 2.79108,19.50205 0.25672,26.01813 z"
   id="path16"
   transform="scale(0.4125)" /><path
   style="fill:#ffffff;fill-opacity:1;stroke-width:1.02945"
   d="m 627.71219,315.89807 c -0.99202,2.46841 -3.8883,6.95229 -6.4362,9.9642 -2.54791,3.01191 -48.64175,49.44512 -102.43076,103.18491 C 408.28832,539.50293 416.03079,532.7513 399.9432,532.73281 c -6.74546,-0.008 -9.8462,-0.51433 -13.53311,-2.21098 -6.84106,-3.14812 -27.6604,-23.29352 -125.53597,-121.47224 -68.8814,-69.09475 -85.47755,-86.26325 -87.41853,-90.43332 -3.57002,-7.66994 -4.03618,-20.63768 -1.02866,-28.61556 2.9125,-7.72588 11.10663,-16.2512 19.24833,-20.02635 4.89583,-2.2701 7.47718,-2.77809 14.23735,-2.80183 7.31753,-0.0257 9.05422,0.36333 15.25967,3.41826 6.44785,3.17426 13.80294,10.21553 92.87662,88.91369 l 85.87422,85.46645 86.01951,-85.52808 c 97.67521,-97.11717 92.0661,-92.32639 108.03115,-92.27032 6.71253,0.0236 9.35025,0.53593 14.0996,2.73876 7.45798,3.45915 14.08431,9.57577 17.86958,16.49498 2.59648,4.74621 3.01642,6.69798 3.2756,15.22399 0.22677,7.45967 -0.13061,10.84455 -1.50637,14.26781 z"
   id="path17"
   transform="scale(0.4125)" /><path
   style="fill:#ffffff;fill-opacity:1;stroke-width:1.02945"
   d="m 627.71219,315.89807 c -0.99202,2.46841 -3.8883,6.95229 -6.4362,9.9642 -2.54791,3.01191 -48.64175,49.44512 -102.43076,103.18491 -110.96852,110.86699 -102.74482,103.72877 -119.41676,103.65431 -7.57051,-0.0338 -10.07564,-0.46656 -13.69676,-2.36601 -6.64226,-3.4842 -31.23863,-27.37697 -124.85759,-121.28589 -68.8814,-69.09475 -85.47755,-86.26325 -87.41853,-90.43332 -3.50464,-7.52949 -4.03309,-20.6492 -1.14029,-28.31001 3.07497,-8.14327 10.07825,-15.6707 18.38341,-19.75931 6.01999,-2.96364 7.87428,-3.37823 15.16193,-3.39001 7.3555,-0.0119 9.1045,0.38093 15.3249,3.44189 6.47419,3.18584 13.68755,10.09009 92.4967,88.53311 47.01121,46.7928 85.8192,85.07782 86.23998,85.07782 0.42079,0 39.29545,-38.31319 86.38815,-85.14044 78.2836,-77.84231 86.21408,-85.43124 92.51768,-88.53311 6.0935,-2.99848 7.85365,-3.38849 15.1488,-3.35659 6.68977,0.0293 9.36153,0.54834 14.09653,2.73877 7.45304,3.44781 14.08176,9.56399 17.86958,16.48788 2.59648,4.74621 3.01642,6.69798 3.2756,15.22399 0.22677,7.45967 -0.13061,10.84455 -1.50637,14.26781 z"
   id="path18"
   transform="scale(0.4125)" /><path
   style="fill:#0b5917;fill-opacity:1;stroke-width:1.02945"
   d="m 797.45767,774.87081 c -3.68163,10.63804 -11.36709,18.4176 -22.27819,22.55096 -5.01666,1.90042 -14.55149,1.9499 -375.75101,1.9499 H 28.824735 l -6.691456,-3.20003 C 14.104851,792.33224 7.5936508,785.9713 3.8136412,778.27477 L 1.0294548,772.60584 V 399.9432 27.280553 L 3.3130935,22.381429 C 6.3348031,15.898911 14.222756,7.5977781 20.275318,4.5307233 c 2.680848,-1.3584891 8.01745,-2.9244752 11.859117,-3.4799588 9.560772,-1.38244455 726.056755,-1.38244455 735.617525,0 12.6324,1.8265823 22.71479,9.1463875 28.32079,20.5608685 l 2.78419,5.66892 0.22671,371.118467 c 0.21686,355.01034 0.14628,371.35082 -1.62598,376.47179 z M 627.09846,286.93899 c -3.693,-7.5482 -12.24117,-15.36284 -19.98092,-18.26629 -4.77551,-1.79147 -7.60272,-2.14966 -14.66629,-1.85811 -16.47757,0.68012 -10.13903,-4.75397 -106.08987,90.95207 -46.81384,46.6944 -85.70979,84.89891 -86.43544,84.89891 -0.72565,0 -39.59949,-38.19795 -86.38633,-84.88433 -95.93089,-95.72493 -89.58547,-90.28482 -106.10446,-90.96665 -7.06358,-0.29155 -9.89078,0.0666 -14.6663,1.85811 -7.70853,2.89175 -15.9323,10.42526 -19.86589,18.19848 -2.73639,5.40741 -3.03963,6.9874 -3.03026,15.78854 0.0186,17.46234 -8.33412,7.80325 104.89196,121.29703 54.9763,55.10626 101.92064,101.5663 104.32077,103.24452 6.38945,4.46764 12.15787,6.1827 20.85929,6.20186 5.42535,0.0119 9.55929,-0.65539 13.89764,-2.24349 5.97348,-2.18666 9.48168,-5.56072 107.39034,-103.28412 56.00664,-55.90066 102.40193,-103.02113 103.87221,-105.49575 4.58682,-7.72007 5.48844,-11.37291 5.14213,-20.83273 -0.26052,-7.11574 -0.87281,-9.95654 -3.14858,-14.60805 z"
   id="path19"
   transform="scale(0.4125)" /><path
   style="fill:#0b5917;fill-opacity:1;stroke-width:1.02945"
   d="m 797.45767,774.87081 c -3.68163,10.63804 -11.36709,18.4176 -22.27819,22.55096 -5.01666,1.90042 -14.55149,1.9499 -375.75101,1.9499 H 28.824735 l -6.405652,-2.95882 C 14.894957,792.93739 6.6578675,784.79269 3.2881881,777.49654 l -2.2587333,-4.8907 V 399.9432 27.280553 L 3.867904,21.503469 C 7.6213387,13.864131 15.907605,6.130805 23.703467,2.9915237 L 29.85419,0.51472741 394.2812,0.21879003 C 636.47012,0.02211269 761.38009,0.27313495 766.67389,0.96716251 780.31215,2.7551402 790.20798,9.6683926 795.99371,21.450071 l 2.86323,5.830482 0.22671,371.118467 c 0.21686,355.01034 0.14628,371.35082 -1.62598,376.47179 z M 626.92758,286.77271 c -3.83701,-7.58369 -12.15272,-15.22919 -19.59129,-18.01232 -7.72632,-2.89079 -18.97399,-2.88383 -26.72591,0.0165 -7.43886,2.78324 -8.45652,3.74674 -97.28134,92.10458 -39.91711,39.70725 -75.02467,74.43091 -78.0168,77.16371 l -5.44023,4.9687 -4.33959,-4.03233 c -2.38677,-2.21779 -39.77857,-39.2691 -83.09288,-82.33626 -43.31431,-43.06716 -80.92805,-80.04749 -83.58607,-82.17851 -9.40386,-7.53936 -22.36998,-9.89015 -34.56896,-6.26743 -15.21426,4.51814 -26.04504,21.10715 -24.70226,37.83531 0.74729,9.30962 3.39836,14.34571 13.39715,25.44976 4.8435,5.3789 50.89343,51.75578 102.33317,103.05972 73.07583,72.88292 94.59414,93.78057 98.408,95.56956 9.6094,4.50752 22.85742,4.50452 32.44526,-0.007 3.8131,-1.79439 26.57902,-23.94554 104.04107,-101.23155 54.53792,-54.41399 100.58114,-100.7049 102.31827,-102.86868 1.73711,-2.16379 4.26781,-6.56471 5.62376,-9.77982 2.09345,-4.96379 2.4132,-7.17991 2.11954,-14.68982 -0.28531,-7.29611 -0.87009,-9.88031 -3.34089,-14.76377 z"
   id="path20"
   transform="scale(0.4125)" /><path
   style="fill:#0b5917;fill-opacity:1;stroke-width:1.02945"
   d="m 797.45767,774.87081 c -3.68163,10.63804 -11.36709,18.4176 -22.27819,22.55096 -5.01666,1.90042 -14.55149,1.9499 -375.75101,1.9499 H 28.824735 l -6.405652,-2.95882 C 14.894957,792.93739 6.6578675,784.79269 3.2881881,777.49654 l -2.2587333,-4.8907 V 399.9432 27.280553 L 3.2729179,22.424378 C 6.2286177,16.026511 14.213869,7.6022871 20.196148,4.5708412 22.833454,3.2344132 27.93843,1.6627548 31.540539,1.0782613 40.362043,-0.35314418 757.8574,-0.37995119 767.75196,1.0507645 c 12.71615,1.838699 22.65105,9.0147715 28.24175,20.3993065 l 2.86323,5.830482 0.22671,371.118467 c 0.21686,355.01034 0.14628,371.35082 -1.62598,376.47179 z M 627.36339,287.73262 c -3.04738,-6.5226 -11.28493,-14.82345 -17.85275,-17.98993 -6.27095,-3.02336 -18.88875,-4.0222 -25.92478,-2.05223 -2.60622,0.72969 -7.35256,3.25906 -10.54741,5.62082 -3.19486,2.36175 -41.0162,39.25109 -84.04741,81.97632 -43.03121,42.72523 -80.6655,79.92234 -83.63174,82.66025 l -5.39318,4.97802 -4.38664,-3.90237 c -2.41266,-2.14631 -40.35165,-39.68855 -84.30889,-83.42721 -44.33992,-44.11946 -82.38092,-81.14336 -85.44475,-83.16022 -7.03781,-4.6329 -13.44992,-6.19691 -22.91541,-5.58946 -13.18408,0.84611 -23.67134,7.96791 -29.66682,20.14646 -3.06714,6.23024 -3.38356,7.74146 -3.38356,16.15973 0,7.63681 0.42477,10.14918 2.39087,14.14105 3.78636,7.68764 20.81105,25.31967 116.63888,120.79986 72.37609,72.11354 90.9552,90.09759 95.09685,92.05108 3.74933,1.76845 7.56279,2.55357 14.04134,2.89081 14.28398,0.74355 16.65182,-0.43695 34.60531,-17.25268 26.27239,-24.60743 191.40072,-190.81693 193.32722,-194.59302 5.30097,-10.3903 5.86748,-23.90124 1.40287,-33.45728 z"
   id="path21"
   transform="scale(0.4125)" /><path
   style="fill:#0b5917;fill-opacity:1;stroke-width:1.02945"
   d="m 797.45692,774.87081 c -3.73545,10.79788 -11.72265,18.92717 -22.27744,22.67375 -4.89321,1.73693 -23.43976,1.82711 -375.75101,1.82711 H 28.824735 l -6.405652,-2.95882 C 14.894957,792.93739 6.6578675,784.79269 3.2881881,777.49654 l -2.2587333,-4.8907 V 399.9432 27.280553 L 3.2729179,22.424378 C 6.2286177,16.026511 14.213869,7.6022871 20.196148,4.5708412 22.833454,3.2344132 27.93843,1.6627548 31.540539,1.0782613 40.362043,-0.35314418 757.8574,-0.37995119 767.75196,1.0507645 780.623,2.9118541 790.33557,9.9282579 795.99573,21.454189 l 2.86121,5.826364 0.22598,371.118467 c 0.21612,354.95433 0.14531,371.35162 -1.626,376.47179 z M 626.55953,286.82394 c -3.66282,-7.44025 -9.75388,-13.4721 -17.41428,-17.24502 -4.08601,-2.01246 -6.48631,-2.39483 -15.14982,-2.41336 -8.86072,-0.019 -11.01146,0.32888 -15.44182,2.49746 -5.62903,2.75531 -17.32951,14.04054 -114.78421,110.71056 -30.85791,30.60944 -57.81928,57.21557 -59.91416,59.1247 l -3.80886,3.47118 -3.91205,-3.35584 c -2.15162,-1.84571 -31.93895,-31.22794 -66.19406,-65.29385 -93.26504,-92.74994 -101.62379,-100.80788 -108.09276,-104.20303 -5.15133,-2.70361 -6.59048,-2.97063 -15.95655,-2.96055 -8.69609,0.009 -11.04843,0.38396 -15.14981,2.41258 -7.73952,3.82807 -13.75122,9.81449 -17.49754,17.42393 -3.0672,6.23002 -3.38356,7.74097 -3.38356,16.15973 0,11.67481 1.84554,15.58241 13.38291,28.33585 4.5296,5.00703 50.16018,50.94789 101.4013,102.09078 72.91141,72.77167 94.39658,93.64901 98.82766,96.03184 4.81105,2.58714 7.07899,3.10782 15.0901,3.46439 13.84867,0.6164 16.68484,-0.94579 37.54556,-20.68047 C 457.8288,491.84609 619.90132,329.12914 623.82,323.93603 c 7.67237,-10.1676 8.75879,-24.88523 2.73953,-37.11209 z"
   id="path22"
   transform="scale(0.4125)" /><path
   style="fill:#0b5917;fill-opacity:1;stroke-width:1.02945"
   d="m 797.45766,774.87081 c -3.73733,10.79901 -11.72384,18.92732 -22.27818,22.67375 -4.89327,1.73694 -23.46152,1.82711 -376.26574,1.82711 H 27.79528 l -6.193459,-3.23908 C 14.687612,792.51658 7.0890769,784.99532 3.4412462,778.1567 L 1.0294548,773.6353 V 399.9432 26.251098 L 3.4412462,21.729691 C 6.8596726,15.32115 14.576,7.4187765 20.196148,4.5708412 22.833454,3.2344132 27.93843,1.6627548 31.540539,1.0782613 40.362043,-0.35314418 757.8574,-0.37995119 767.75196,1.0507645 c 12.52254,1.8106978 22.45917,8.822222 28.36933,20.0180785 l 2.73565,5.182255 0.2267,371.633192 c 0.21686,355.50566 0.1463,371.8655 -1.62598,376.98652 z M 627.10032,287.79795 c -3.16112,-6.90481 -10.02382,-13.93072 -17.31562,-17.72747 -4.91936,-2.56145 -6.57268,-2.86448 -15.78927,-2.89399 -15.85213,-0.0508 -14.59044,-0.92893 -53.01692,36.90122 -13.8719,13.65662 -50.97345,50.42569 -82.44786,81.70904 -31.47442,31.28335 -57.8484,56.87882 -58.60882,56.87882 -0.76043,0 -28.74617,-27.22306 -62.19054,-60.49571 C 237.67171,282.62405 228.14876,273.41771 221.84751,270.13899 c -5.11428,-2.66111 -6.65785,-2.94829 -15.95655,-2.96871 -9.79138,-0.0215 -10.61285,0.14988 -16.80689,3.50619 -7.57088,4.10237 -12.74001,9.61383 -16.4795,17.57088 -2.25242,4.7928 -2.65788,7.08434 -2.64113,14.9271 0.0289,13.54184 1.39292,15.68432 27.03258,42.46148 33.1924,34.66497 178.67518,178.7982 184.09767,182.38991 2.65652,1.7596 6.71048,3.70717 9.00877,4.32792 6.41825,1.7335 19.82122,0.65758 24.98143,-2.00538 2.38229,-1.22939 13.03714,-10.50684 23.67747,-20.61658 28.50809,-27.08651 183.06981,-182.7221 186.28243,-187.57669 6.09204,-9.20568 6.95684,-23.65346 2.05653,-34.35716 z"
   id="path23"
   transform="scale(0.4125)" /><path
   style="fill:#0b5917;fill-opacity:1;stroke-width:1.02945"
   d="m 797.45471,774.87081 c -3.72982,10.79445 -11.71912,18.9267 -22.27523,22.67375 -4.89327,1.73694 -23.46152,1.82711 -376.26574,1.82711 H 27.79528 l -5.855351,-2.92121 C 15.343381,793.15947 7.095049,785.01039 3.4594125,778.19231 L 1.0294548,773.6353 V 399.9432 26.251098 L 3.4412462,21.729691 C 6.8596726,15.32115 14.576,7.4187765 20.196148,4.5708412 22.833454,3.2344132 27.93843,1.6627548 31.540539,1.0782613 40.362043,-0.35314418 757.8574,-0.37995119 767.75196,1.0507645 c 13.11317,1.8961014 23.05651,9.1617775 28.61346,20.9080835 l 3.00462,6.35116 -0.0328,370.603732 c -0.0313,353.91386 -0.1161,370.84482 -1.88254,375.95707 z M 627.08908,287.77342 c -3.06998,-6.70573 -10.2969,-14.04592 -17.55458,-17.82973 -4.63736,-2.41769 -6.43634,-2.73805 -15.53907,-2.7672 -9.51931,-0.0305 -10.72093,0.19917 -15.95655,3.04964 -5.95062,3.23973 -24.02168,20.74173 -126.21115,122.23673 -27.80042,27.61149 -51.16044,50.20271 -51.91115,50.20271 -0.75072,0 -26.41503,-24.90974 -57.03181,-55.35499 -78.28595,-77.84733 -108.48916,-107.56067 -113.75954,-111.91447 -8.39839,-6.93782 -11.82378,-8.17662 -22.71954,-8.21666 -8.4922,-0.0312 -10.55192,0.32599 -15.64411,2.71291 -7.42697,3.48132 -14.07036,10.09807 -17.80709,17.73567 -2.50011,5.11004 -2.92378,7.23766 -2.9709,14.91936 -0.10123,16.50291 -2.62635,13.441 78.05592,94.64828 70.39454,70.8526 131.63864,130.51007 136.61812,133.0788 6.09871,3.14611 19.17458,3.90845 26.32162,1.53458 2.82988,-0.93993 8.26831,-4.26016 12.21664,-7.45842 3.91392,-3.17039 50.70522,-49.41871 103.98065,-102.77404 98.83274,-98.98095 99.87658,-100.10215 102.45306,-110.04573 1.51417,-5.84377 0.25048,-17.6611 -2.54052,-23.75744 z"
   id="path24"
   transform="scale(0.4125)" /></svg>
